<?xml version="1.0" standalone="no"?><!DOCTYPE svg PUBLIC "-//W3C//DTD SVG 1.1//EN" "http://www.w3.org/Graphics/SVG/1.1/DTD/svg11.dtd"><svg class="icon" width="100px" height="100.00px" viewBox="0 0 1024 1024" version="1.1" xmlns="http://www.w3.org/2000/svg"><path fill="#000000" d="M983.8 312.7C958 251.7 921.1 197 874 150c-47-47-101.7-84-162.7-109.8C648.2 13.5 581.1 0 512 0c-69.1 0-136.2 13.5-199.3 40.2C251.7 66 197 103 150 150c-18.2 18.2-34.9 37.6-50 58-0.6 0.7-1.1 1.4-1.6 2.2-23.2 31.7-42.7 66-58.2 102.6C13.5 375.8 0 442.9 0 512s13.5 136.2 40.2 199.3C66 772.3 103 827 150 874c47 47 101.8 83.9 162.7 109.7 63.1 26.7 130.2 40.2 199.3 40.2 69.1 0 136.2-13.5 199.3-40.2C772.3 958 827 921 874 874c47-47 83.9-101.8 109.7-162.7 26.7-63.1 40.2-130.2 40.2-199.3s-13.4-136.2-40.1-199.3z m-86.3 447.1c-36-18.6-78.9-34.6-126.4-47.1 12.5-54.6 19.9-113.2 21.6-173.8h176.6c-4.5 79.4-29.3 155.1-71.8 220.9zM54.6 538.9h176.6c1.7 60.6 9 119.2 21.6 173.8-47.4 12.5-90.4 28.5-126.3 47.1C84 694 59.2 618.3 54.6 538.9zM129.2 260c35.7 18.2 78.1 33.8 124.9 46-13.3 56-21.1 116.5-22.8 179H54.6c4.7-81 30.4-158.2 74.6-225z m355.9 225.1h-200c1.7-58.6 9-115 21.4-167.1 56.5 11.1 116.4 17.4 178.6 18.8v148.3z m0 53.8v142.8c-62.7 1.4-123 7.8-179.9 19-11.6-50.6-18.5-105.2-20.1-161.8h200z m53.8 0h199.9c-1.7 56.6-8.5 111.2-20.1 161.8-56.9-11.2-117.2-17.6-179.8-19V538.9z m0-53.8V336.8c62.2-1.4 122.1-7.7 178.6-18.8 12.4 52.1 19.7 108.5 21.4 167.1h-200z m0-202.2V57.2c18.8 4.7 37.2 14.3 55.1 28.8 27.4 22.1 52.2 54.2 73.9 95.5 13.5 25.8 25.2 54.1 35 84.4-51.3 9.7-106.8 15.6-164 17zM430 86c17.9-14.5 36.4-24.1 55.1-28.8v225.7c-57.2-1.4-112.7-7.3-164-17 9.8-30.3 21.5-58.6 35-84.4 21.6-41.3 46.5-73.4 73.9-95.5z m55.1 649.5v231.3c-18.8-4.7-37.2-14.3-55.1-28.8-27.4-22.1-52.2-54.2-73.9-95.5-14.3-27.3-26.6-57.3-36.7-89.6 51.7-10 107.9-16 165.7-17.4z m109 202.5c-17.9 14.5-36.4 24.1-55.1 28.8V735.5c57.8 1.4 113.9 7.4 165.7 17.4-10.2 32.3-22.4 62.4-36.7 89.6-21.7 41.3-46.6 73.4-73.9 95.5z m198.6-452.9c-1.7-62.5-9.5-123-22.8-179 46.7-12.2 89.1-27.9 124.9-46 44.2 66.8 69.9 143.9 74.6 225.1H792.7v-0.1zM836 188c9.1 9.1 17.7 18.5 26 28.2-30.9 14.9-66.9 27.6-106.3 37.8-11.1-35.1-24.5-67.8-40.1-97.6-15.5-29.6-32.7-55.3-51.2-76.8C728.2 102.1 786.7 138.8 836 188zM359.6 79.7c-18.5 21.5-35.7 47.2-51.2 76.8-15.6 29.8-29 62.5-40.1 97.6-39.4-10.2-75.3-22.9-106.3-37.8 8.2-9.7 16.9-19.1 26-28.2 49.3-49.3 107.8-86 171.6-108.4zM188 836a467.54 467.54 0 0 1-29.3-32.2c31.3-15.4 67.8-28.5 108-39 11.4 37 25.3 71.5 41.7 102.7 15.5 29.6 32.7 55.3 51.2 76.8C295.8 921.9 237.3 885.2 188 836z m476.4 108.3c18.5-21.5 35.7-47.2 51.2-76.8 16.4-31.2 30.3-65.7 41.6-102.7 40.2 10.5 76.7 23.6 108 39-9.2 11.1-19 21.9-29.3 32.2-49.2 49.2-107.7 85.9-171.5 108.3z"  /></svg>