<?xml version="1.0" standalone="no"?><!DOCTYPE svg PUBLIC "-//W3C//DTD SVG 1.1//EN" "http://www.w3.org/Graphics/SVG/1.1/DTD/svg11.dtd"><svg class="icon" width="100px" height="100.00px" viewBox="0 0 1024 1024" version="1.1" xmlns="http://www.w3.org/2000/svg"><path fill="#000000" d="M832 384h-64V256C768 114.8 653.2 0 512 0S256 114.8 256 256v128h-64c-35.3 0-64 28.7-64 64v512c0 35.3 28.7 64 64 64h640c35.3 0 64-28.7 64-64V448c0-35.3-28.7-64-64-64zM320 256c0-105.9 86.1-192 192-192s192 86.1 192 192v128H320V256z m512 704H192V448h640v512z"  /><path fill="#000000" d="M480 730.5v100.8c0 16.4 13.3 31.4 29.7 32.6 18.7 1.3 34.3-13.5 34.3-31.9V730.5c37.2-13.2 64-48.8 64-90.5 0-52.9-43.1-96-96-96s-96 43.1-96 96c0 41.7 26.8 77.3 64 90.5zM512 608c17.6 0 32 14.4 32 32s-14.4 32-32 32-32-14.4-32-32 14.4-32 32-32z"  /></svg>