<?xml version="1.0" standalone="no"?><!DOCTYPE svg PUBLIC "-//W3C//DTD SVG 1.1//EN" "http://www.w3.org/Graphics/SVG/1.1/DTD/svg11.dtd"><svg class="icon" width="100px" height="100.00px" viewBox="0 0 1024 1024" version="1.1" xmlns="http://www.w3.org/2000/svg"><path fill="#000000" d="M934.5 128h-845C75.4 128 64 139.4 64 153.5v717c0 14.1 11.4 25.5 25.5 25.5h845c14.1 0 25.5-11.4 25.5-25.5v-717c0-14.1-11.4-25.5-25.5-25.5zM214.7 677.1l-7-10.2c-8.1-11.7-5.2-27.8 6.5-35.9l213.4-147.9c4.4-3.1 4.4-9.6 0-12.6L214.2 322.6c-11.7-8.1-14.6-24.2-6.5-35.9l7-10.2c8.1-11.7 24.2-14.6 35.9-6.5L522 458.1c13 9 13 28.3 0 37.3L250.7 683.6c-11.8 8.1-27.9 5.2-36-6.5z m617.3 11c0 8.8-7.1 15.9-15.9 15.9H527.9c-8.8 0-15.9-7.1-15.9-15.9v-32.2c0-8.8 7.1-15.9 15.9-15.9h288.2c8.8 0 15.9 7.1 15.9 15.9v32.2z"  /></svg>