<?xml version="1.0" standalone="no"?><!DOCTYPE svg PUBLIC "-//W3C//DTD SVG 1.1//EN" "http://www.w3.org/Graphics/SVG/1.1/DTD/svg11.dtd"><svg class="icon" width="100px" height="100.00px" viewBox="0 0 1024 1024" version="1.1" xmlns="http://www.w3.org/2000/svg"><path fill="#000000" d="M984.662665 0H432.710684v157.34934H275.361345V0H39.337335A39.447971 39.447971 0 0 0 0 39.337335v945.32533a39.447971 39.447971 0 0 0 39.337335 39.337335h945.32533a39.447971 39.447971 0 0 0 39.337335-39.337335V39.337335a39.447971 39.447971 0 0 0-39.337335-39.337335zM275.361345 630.626651H118.012005V473.277311h157.34934V315.927971H118.012005V158.578631h157.34934v157.34934h157.349339v157.34934H275.361345z m215.531716 99.007155l-94.114574 57.702953 94.114574 59.006002v60.46886l-135.062281-93.192605v-51.716303L490.893061 668.734694zM620.792317 931.803121h-57.776711l49.171669-293.80072h57.776711z m245.083889-118.184105L730.813926 907.217287v-60.46886l94.385018-59.006002-94.385018-58.108619V669.595198l135.06228 92.737767z" /></svg>